<?xml version="1.0" encoding="utf-8"?>
<svg xmlns="http://www.w3.org/2000/svg" viewBox="0 0 24 24" width="192" height="192">
  <path d="M20.5,7h-17C2.671,7,2,6.329,2,5.5S2.671,4,3.5,4h17C21.329,4,22,4.671,22,5.5S21.329,7,20.5,7z" opacity=".35" fill="#5F5C5C" />
  <path d="M20.5,14h-17C2.671,14,2,13.329,2,12.5S2.671,11,3.5,11h17c0.829,0,1.5,0.671,1.5,1.5S21.329,14,20.5,14z" fill="#5F5C5C" />
  <path d="M20.5,21h-17C2.671,21,2,20.329,2,19.5S2.671,18,3.5,18h17c0.829,0,1.5,0.671,1.5,1.5 S21.329,21,20.5,21z" opacity=".35" fill="#5F5C5C" />
</svg>