<?xml version="1.0" encoding="utf-8"?>
<svg xmlns="http://www.w3.org/2000/svg" viewBox="0 0 24 24" width="192" height="192">
  <path d="M20.5,7h-17C2.672,7,2,6.329,2,5.5S2.672,4,3.5,4h17C21.328,4,22,4.671,22,5.5S21.328,7,20.5,7z" opacity=".35" fill="#5F5C5C" />
  <path d="M16.5,14h-9C6.672,14,6,13.329,6,12.5S6.672,11,7.5,11h9c0.828,0,1.5,0.671,1.5,1.5S17.328,14,16.5,14z" fill="#5F5C5C" />
  <path d="M19.5,21h-15C3.672,21,3,20.329,3,19.5S3.672,18,4.5,18h15c0.828,0,1.5,0.671,1.5,1.5 S20.328,21,19.5,21z" opacity=".35" fill="#5F5C5C" />
</svg>