<?xml version="1.0" encoding="utf-8"?>
<svg width="24px" height="24px" viewBox="0 0 24 24" version="1.1" xmlns:xlink="http://www.w3.org/1999/xlink" xmlns="http://www.w3.org/2000/svg">
  <defs>
    <path d="M24 0L24 0L24 24L0 24L0 0L24 0Z" id="path_1" />
    <clipPath id="clip_1">
      <use xlink:href="#path_1" clip-rule="evenodd" fill-rule="evenodd" />
    </clipPath>
  </defs>
  <g id="Briefcase">
    <path d="M24 0L24 0L24 24L0 24L0 0L24 0Z" id="Briefcase" fill="none" stroke="none" />
    <path d="M19 4L5 4C3.343 4 2 5.343 2 7L2 12C2 13.657 3.343 15 5 15L19 15C20.657 15 22 13.657 22 12L22 7C22 5.343 20.657 4 19 4L19 4Z" id="Shape" fill="#5f5c5c" fill-opacity="0.35" stroke="none" clip-path="url(#clip_1)" />
    <path d="M10.5 11C10.5 10.1716 11.1716 9.5 12 9.5C12.8284 9.5 13.5 10.1716 13.5 11C13.5 11.8284 12.8284 12.5 12 12.5C11.1716 12.5 10.5 11.8284 10.5 11Z" id="Circle" fill="#5f5c5c" fill-rule="evenodd" stroke="none" clip-path="url(#clip_1)" />
    <path d="M19 15L5 15C3.343 15 2 13.657 2 12L2 18C2 19.657 3.343 21 5 21L19 21C20.657 21 22 19.657 22 18L22 12C22 13.657 20.657 15 19 15L19 15Z" id="Shape" fill="#5f5c5c" stroke="none" clip-path="url(#clip_1)" />
    <path d="M13 2C12.634 2 11.366 2 11 2C9.895 2 9 2.895 9 4L15 4C15 2.895 14.105 2 13 2L13 2Z" id="Shape" fill="#5f5c5c" stroke="none" clip-path="url(#clip_1)" />
  </g>
</svg>