<?xml version="1.0" encoding="utf-8"?>
<svg width="24px" height="24px" viewBox="0 0 24 24" version="1.1" xmlns:xlink="http://www.w3.org/1999/xlink" xmlns="http://www.w3.org/2000/svg">
  <defs>
    <path d="M24 0L24 0L24 24L0 24L0 0L24 0Z" id="path_1" />
    <clipPath id="clip_1">
      <use xlink:href="#path_1" clip-rule="evenodd" fill-rule="evenodd" />
    </clipPath>
  </defs>
  <g id="About">
    <path d="M24 0L24 0L24 24L0 24L0 0L24 0Z" id="About" fill="none" stroke="none" />
    <path d="M12 2C6.477 2 2 6.477 2 12C2 13.592 2.382 15.091 3.043 16.427L2.038 20.446C1.809 21.361 2.638 22.191 3.554 21.962L7.573 20.957C8.909 21.618 10.408 22 12 22C17.523 22 22 17.523 22 12C22 6.477 17.523 2 12 2L12 2Z" id="Shape" fill="#5f5c5c" fill-opacity="0.35" stroke="none" clip-path="url(#clip_1)" />
    <path d="M11 17L11 12C11 11.448 11.448 11 12 11L12 11C12.552 11 13 11.448 13 12L13 17C13 17.552 12.552 18 12 18L12 18C11.448 18 11 17.552 11 17L11 17Z" id="Shape" fill="#5f5c5c" stroke="none" clip-path="url(#clip_1)" />
    <path d="M10.5 7.5C10.5 6.67157 11.1716 6 12 6C12.8284 6 13.5 6.67157 13.5 7.5C13.5 8.32843 12.8284 9 12 9C11.1716 9 10.5 8.32843 10.5 7.5Z" id="Circle" fill="#5f5c5c" fill-rule="evenodd" stroke="none" clip-path="url(#clip_1)" />
  </g>
</svg>