<?xml version="1.0" encoding="utf-8"?>
<svg xmlns="http://www.w3.org/2000/svg" viewBox="0 0 24 24" width="192" height="192">
  <path d="M18,21H6c-1.657,0-3-1.343-3-3V6c0-1.657,1.343-3,3-3h12c1.657,0,3,1.343,3,3v12C21,19.657,19.657,21,18,21z" opacity=".35" />
  <path d="M20.966,2.431c-0.992-0.714-2.384-0.504-3.249,0.361L10.719,9.79C10.259,10.25,10,10.874,10,11.525l0,1.511c0,0.521,0.422,0.944,0.944,0.944l1.511,0c0.651,0,1.275-0.259,1.735-0.719l7.091-7.091C22.335,5.116,22.23,3.341,20.966,2.431z" />
</svg>