<?xml version="1.0" encoding="utf-8"?>
<svg width="24px" height="24px" viewBox="0 0 24 24" version="1.1" xmlns:xlink="http://www.w3.org/1999/xlink" xmlns="http://www.w3.org/2000/svg">
  <defs>
    <path d="M24 0L24 0L24 24L0 24L0 0L24 0Z" id="path_1" />
    <clipPath id="clip_1">
      <use xlink:href="#path_1" clip-rule="evenodd" fill-rule="evenodd" />
    </clipPath>
  </defs>
  <g id="icons8_Done">
    <path d="M24 0L24 0L24 24L0 24L0 0L24 0Z" id="icons8_Done" fill="none" stroke="none" />
    <path d="M5.268 10.732C4.292 9.756 2.709 9.756 1.732 10.732C0.755 11.708 0.756 13.291 1.732 14.268L6.377 18.913C7.826 20.362 10.174 20.362 11.623 18.913L12.536 18L5.268 10.732L5.268 10.732Z" id="Shape" fill="#5f5c5c" fill-opacity="0.35" stroke="none" clip-path="url(#clip_1)" />
    <path d="M22.268 4.732C21.292 3.756 19.709 3.756 18.732 4.732L9 14.464L12.536 18L22.268 8.268C23.244 7.291 23.244 5.708 22.268 4.732L22.268 4.732Z" id="Shape" fill="#5f5c5c" stroke="none" clip-path="url(#clip_1)" />
  </g>
</svg>