<?xml version="1.0" encoding="utf-8"?>
<svg xmlns="http://www.w3.org/2000/svg" viewBox="0 0 24 24" width="192" height="192">
  <path d="M23.103,19H22v-3.5c0-0.828-0.672-1.5-1.5-1.5S19,14.672,19,15.5V19h-1.103c-0.664,0-1.039,0.761-0.634,1.287l2.603,3.387c0.32,0.417,0.948,0.417,1.269,0l2.603-3.387C24.142,19.761,23.766,19,23.103,19z" fill="#5F5C5C" />
  <path d="M4,19V5c0-1.657,1.343-3,3-3h7l6,6v11c0,1.657-1.343,3-3,3H7C5.343,22,4,20.657,4,19z" opacity=".35" fill="#5F5C5C" />
  <path d="M14,6V2l6,6h-4C14.895,8,14,7.105,14,6z" fill="#5F5C5C" />
  <path d="M9.703,13.881c0,1.638-1.325,1.932-1.788,1.932H7.331v1.521C7.331,17.702,7.033,18,6.665,18l0,0C6.298,18,6,17.702,6,17.335v-4.543C6,12.354,6.354,12,6.791,12h1.073C8.314,12,9.703,12.17,9.703,13.881z M8.432,13.907c0-0.679-0.483-0.763-0.67-0.763H7.331v1.568h0.432C7.949,14.712,8.432,14.585,8.432,13.907z" fill="#5F5C5C" />
  <path d="M14.596,15.017c0,2.273-1.216,2.983-2.492,2.983h-0.895c-0.437,0-0.791-0.354-0.791-0.791v-4.417c0-0.437,0.354-0.791,0.791-0.791h0.895C13.427,12,14.596,12.745,14.596,15.017z M13.231,15.017c0-1.587-0.783-1.831-1.11-1.831H11.79v3.626h0.331C12.448,16.813,13.231,16.605,13.231,15.017z" fill="#5F5C5C" />
  <path d="M16.738,13.221v1.228h0.872c0.309,0,0.559,0.25,0.559,0.559v0.042c0,0.309-0.25,0.559-0.559,0.559h-0.864v1.704c0,0.379-0.307,0.686-0.686,0.686l0,0c-0.379,0-0.686-0.307-0.686-0.686v-4.522c0-0.437,0.354-0.791,0.791-0.791H17.7c0.33,0,0.598,0.268,0.598,0.598v0.026c0,0.33-0.268,0.598-0.598,0.598L16.738,13.221L16.738,13.221z" fill="#5F5C5C" />
</svg>