<?xml version="1.0" encoding="utf-8"?>
<svg width="24px" height="24px" viewBox="0 0 24 24" version="1.1" xmlns:xlink="http://www.w3.org/1999/xlink" xmlns="http://www.w3.org/2000/svg">
  <defs>
    <path d="M24 0L24 0L24 24L0 24L0 0L24 0Z" id="path_1" />
    <clipPath id="clip_1">
      <use xlink:href="#path_1" clip-rule="evenodd" fill-rule="evenodd" />
    </clipPath>
  </defs>
  <g id="Home">
    <path d="M24 0L24 0L24 24L0 24L0 0L24 0Z" id="Home" fill="none" stroke="none" />
    <path d="M18 21L6 21C4.343 21 3 19.657 3 18L3 8.765C3 7.675 3.591 6.672 4.543 6.143L10.543 2.81C11.449 2.307 12.551 2.307 13.457 2.81L19.457 6.143C20.409 6.672 21 7.676 21 8.765L21 18C21 19.657 19.657 21 18 21L18 21Z" id="Shape" fill="#5F5C5C" fill-opacity="0.35" stroke="none" clip-path="url(#clip_1)" />
    <path d="M15 21L9 21L9 15C9 13.895 9.895 13 11 13L13 13C14.105 13 15 13.895 15 15L15 21L15 21Z" id="Shape" fill="#5F5C5C" stroke="none" clip-path="url(#clip_1)" />
  </g>
</svg>