<?xml version="1.0" encoding="utf-8"?>
<svg width="24px" height="24px" viewBox="0 0 24 24" version="1.1" xmlns:xlink="http://www.w3.org/1999/xlink" xmlns="http://www.w3.org/2000/svg">
  <defs>
    <path d="M24 0L24 0L24 24L0 24L0 0L24 0Z" id="path_1" />
    <clipPath id="clip_1">
      <use xlink:href="#path_1" clip-rule="evenodd" fill-rule="evenodd" />
    </clipPath>
  </defs>
  <g id="External Link">
    <path d="M24 0L24 0L24 24L0 24L0 0L24 0Z" id="External-Link" fill="none" stroke="none" />
    <path d="M18 21L6 21C4.343 21 3 19.657 3 18L3 6C3 4.343 4.343 3 6 3L18 3C19.657 3 21 4.343 21 6L21 18C21 19.657 19.657 21 18 21L18 21Z" id="Shape" fill="#5f5c5c" fill-opacity="0.35" stroke="none" clip-path="url(#clip_1)" />
    <path d="M21 4.655L21 8.98C21 9.887 19.903 10.341 19.262 9.7L14.3 4.738C13.659 4.097 14.113 3 15.02 3L19.345 3C20.259 3 21 3.741 21 4.655L21 4.655Z" id="Shape" fill="#5f5c5c" stroke="none" clip-path="url(#clip_1)" />
    <path d="M13.414 13.414C13.805 13.023 18.734 8.094 18.734 8.094L15.906 5.266C15.906 5.266 10.976 10.196 10.586 10.586C9.805 11.367 9.805 12.633 10.586 13.414C11.367 14.195 12.633 14.195 13.414 13.414L13.414 13.414Z" id="Shape" fill="#5f5c5c" stroke="none" clip-path="url(#clip_1)" />
  </g>
</svg>