<?xml version="1.0" encoding="utf-8"?>
<svg width="24px" height="24px" viewBox="0 0 24 24" version="1.1" xmlns:xlink="http://www.w3.org/1999/xlink" xmlns="http://www.w3.org/2000/svg">
  <defs>
    <path d="M24 0L24 0L24 24L0 24L0 0L24 0Z" id="path_1" />
    <clipPath id="clip_1">
      <use xlink:href="#path_1" clip-rule="evenodd" fill-rule="evenodd" />
    </clipPath>
  </defs>
  <g id="Ok">
    <path d="M24 0L24 0L24 24L0 24L0 0L24 0Z" id="Ok" fill="none" stroke="none" />
    <path d="M2 12C2 6.47715 6.47715 2 12 2C17.5228 2 22 6.47715 22 12C22 17.5228 17.5228 22 12 22C6.47715 22 2 17.5228 2 12Z" id="Circle" fill="#5f5c5c" fill-opacity="0.35" fill-rule="evenodd" stroke="none" clip-path="url(#clip_1)" />
    <path d="M11 16C10.744 16 10.488 15.902 10.293 15.707L7.293 12.707C6.902 12.316 6.902 11.684 7.293 11.293C7.684 10.902 8.316 10.902 8.707 11.293L11 13.586L15.293 9.293C15.684 8.902 16.316 8.902 16.707 9.293C17.098 9.684 17.098 10.316 16.707 10.707L11.707 15.707C11.512 15.902 11.256 16 11 16L11 16Z" id="Shape" fill="#5f5c5c" stroke="none" clip-path="url(#clip_1)" />
  </g>
</svg>