<?xml version="1.0" encoding="utf-8"?>
<svg xmlns="http://www.w3.org/2000/svg" viewBox="0 0 24 24" width="192" height="192">
  <path fill-rule="evenodd" d="M11.033,1.64C11.198,1.252,11.578,1,12,1 c0.422,0,0.802,0.252,0.967,0.64l1.003,2.366c0.089,0.211,0.266,0.372,0.483,0.443c0.218,0.071,0.455,0.044,0.651-0.074 l2.202-1.324c0.361-0.217,0.817-0.197,1.158,0.05c0.341,0.248,0.501,0.675,0.406,1.086l-0.579,2.504 c-0.052,0.223-0.004,0.458,0.131,0.643c0.135,0.185,0.343,0.303,0.571,0.323l2.56,0.223c0.42,0.037,0.777,0.321,0.908,0.722 c0.13,0.401,0.008,0.841-0.31,1.117l-1.94,1.685c-0.173,0.15-0.272,0.368-0.272,0.597s0.099,0.447,0.272,0.597l1.94,1.685 c0.318,0.276,0.44,0.716,0.31,1.117c-0.13,0.401-0.488,0.685-0.908,0.722l-2.56,0.223c-0.228,0.02-0.436,0.138-0.571,0.323 c-0.134,0.185-0.182,0.42-0.131,0.643l0.579,2.504c0.095,0.411-0.065,0.838-0.406,1.086c-0.341,0.248-0.797,0.268-1.158,0.05 l-2.202-1.324c-0.196-0.118-0.434-0.145-0.651-0.074c-0.218,0.071-0.394,0.232-0.483,0.443l-1.003,2.366 C12.802,22.748,12.422,23,12,23c-0.422,0-0.802-0.252-0.967-0.64l-1.003-2.366c-0.089-0.211-0.266-0.372-0.483-0.443 c-0.218-0.071-0.455-0.044-0.651,0.074L6.693,20.95c-0.361,0.217-0.817,0.197-1.158-0.05c-0.341-0.248-0.501-0.675-0.406-1.086 l0.579-2.504c0.052-0.223,0.004-0.458-0.131-0.643c-0.135-0.185-0.343-0.303-0.571-0.323l-2.56-0.223 c-0.42-0.037-0.777-0.321-0.908-0.722c-0.13-0.401-0.008-0.841,0.31-1.117l1.94-1.685c0.173-0.15,0.272-0.368,0.272-0.597 s-0.099-0.447-0.272-0.597l-1.94-1.685c-0.318-0.276-0.44-0.716-0.31-1.117C1.669,8.2,2.026,7.916,2.446,7.879l2.56-0.223 c0.228-0.02,0.436-0.138,0.571-0.323c0.134-0.185,0.182-0.42,0.131-0.643L5.129,4.187C5.034,3.776,5.193,3.349,5.534,3.101 c0.341-0.248,0.797-0.268,1.158-0.05l2.202,1.324C9.091,4.493,9.329,4.52,9.547,4.449c0.218-0.071,0.394-0.232,0.483-0.443 L11.033,1.64z" clip-rule="evenodd" opacity=".35" fill="#5F5C5C" />
  <path d="M17,12c0,2.761-2.239,5-5,5c-2.761,0-5-2.239-5-5s2.239-5,5-5C14.761,7,17,9.239,17,12" fill="#5F5C5C" />
</svg>