<?xml version="1.0" encoding="utf-8"?>
<svg width="24px" height="24px" viewBox="0 0 24 24" version="1.1" xmlns:xlink="http://www.w3.org/1999/xlink" xmlns="http://www.w3.org/2000/svg">
  <defs>
    <path d="M24 0L24 0L24 24L0 24L0 0L24 0Z" id="path_1" />
    <clipPath id="clip_1">
      <use xlink:href="#path_1" clip-rule="evenodd" fill-rule="evenodd" />
    </clipPath>
  </defs>
  <g id="icons8_Sun">
    <path d="M24 0L24 0L24 24L0 24L0 0L24 0Z" id="icons8_Sun" fill="none" stroke="none" />
    <path d="M10.925 1.193C11.116 0.771 11.537 0.5 12 0.5C12.463 0.5 12.884 0.771 13.075 1.193L14.242 3.771C14.407 4.136 14.705 4.424 15.075 4.577C15.445 4.73 15.859 4.737 16.234 4.596L18.882 3.599C19.316 3.436 19.805 3.541 20.132 3.869C20.46 4.197 20.565 4.686 20.402 5.119L19.405 7.767C19.264 8.142 19.271 8.556 19.424 8.926C19.577 9.296 19.865 9.593 20.23 9.759L22.808 10.926C23.229 11.116 23.5 11.537 23.5 12C23.5 12.463 23.229 12.884 22.807 13.075L20.229 14.242C19.864 14.407 19.576 14.705 19.423 15.075C19.27 15.445 19.263 15.859 19.404 16.234L20.401 18.882C20.564 19.316 20.459 19.805 20.131 20.132C19.803 20.46 19.314 20.565 18.881 20.402L16.233 19.405C15.858 19.264 15.444 19.271 15.074 19.424C14.704 19.577 14.407 19.865 14.241 20.23L13.074 22.808C12.884 23.229 12.463 23.5 12 23.5C11.537 23.5 11.116 23.229 10.925 22.807L9.758 20.229C9.593 19.864 9.295 19.576 8.925 19.423C8.555 19.27 8.141 19.263 7.766 19.404L5.118 20.401C4.684 20.564 4.195 20.459 3.868 20.131C3.541 19.803 3.435 19.314 3.598 18.881L4.595 16.233C4.736 15.858 4.729 15.444 4.576 15.074C4.423 14.704 4.135 14.407 3.77 14.241L1.192 13.074C0.771 12.884 0.5 12.463 0.5 12C0.5 11.537 0.771 11.116 1.193 10.925L3.771 9.758C4.136 9.593 4.424 9.295 4.577 8.925C4.73 8.555 4.737 8.141 4.596 7.766L3.598 5.118C3.435 4.684 3.54 4.195 3.868 3.868C4.196 3.54 4.685 3.435 5.118 3.598L7.766 4.595C8.141 4.737 8.555 4.73 8.925 4.577C9.295 4.424 9.592 4.136 9.758 3.771L10.925 1.193L10.925 1.193Z" id="Shape" fill="#5f5c5c" fill-opacity="0.35" fill-rule="evenodd" stroke="none" clip-path="url(#clip_1)" />
    <path d="M17.006 12.008C17.006 14.769 14.767 17.008 12.006 17.008C9.245 17.008 7.006 14.769 7.006 12.008C7.006 9.247 9.245 7.008 12.006 7.008C14.767 7.008 17.006 9.248 17.006 12.008" id="Shape" fill="#5f5c5c" stroke="none" clip-path="url(#clip_1)" />
  </g>
</svg>