<?xml version="1.0" encoding="utf-8"?>
<svg xmlns="http://www.w3.org/2000/svg" viewBox="0 0 24 24" width="192" height="192">
  <path d="M12,19c-3.859,0-7-3.14-7-7V2.5C5,1.671,5.672,1,6.5,1S8,1.671,8,2.5V12c0,2.206,1.794,4,4,4s4-1.794,4-4V2.5 C16,1.671,16.672,1,17.5,1S19,1.671,19,2.5V12C19,15.86,15.859,19,12,19z" fill="#5F5C5C" />
  <path d="M18.5,24h-13C4.672,24,4,23.328,4,22.5v0C4,21.672,4.672,21,5.5,21h13c0.828,0,1.5,0.672,1.5,1.5v0 C20,23.328,19.328,24,18.5,24z" opacity=".35" fill="#5F5C5C" />
</svg>