<?xml version="1.0" encoding="utf-8"?>
<svg xmlns="http://www.w3.org/2000/svg" viewBox="0 0 48 48" width="144" height="144">
  <path d="M8.5 5C7.1364058 5 6 6.1364058 6 7.5L6 13.5C6 14.670167 6.9008442 15.530047 8 15.791016L8 36.5C8 40.071938 10.928062 43 14.5 43L33.5 43C37.071938 43 40 40.071938 40 36.5L40 15.791016C41.099156 15.530047 42 14.670167 42 13.5L42 7.5C42 6.1364058 40.863594 5 39.5 5L8.5 5 z M 9 8L39 8L39 13L9 13L9 8 z M 11 16L37 16L37 36.5C37 38.450062 35.450062 40 33.5 40L14.5 40C12.549938 40 11 38.450062 11 36.5L11 16 z M 19.5 22 A 1.50015 1.50015 0 1 0 19.5 25L28.5 25 A 1.50015 1.50015 0 1 0 28.5 22L19.5 22 z" />
</svg>