<?xml version="1.0" encoding="utf-8"?>
<svg xmlns="http://www.w3.org/2000/svg" viewBox="0 0 48 48" width="144" height="144">
  <path d="M20.460938 3.9804688 A 1.50015 1.50015 0 0 0 19.025391 5.2207031L16.986328 16L7.5 16 A 1.50015 1.50015 0 1 0 7.5 19L16.417969 19L14.527344 29L5.5 29 A 1.50015 1.50015 0 1 0 5.5 32L13.958984 32L12.025391 42.220703 A 1.5008259 1.5008259 0 1 0 14.974609 42.779297L17.013672 32L27.958984 32L26.025391 42.220703 A 1.5008259 1.5008259 0 0 0 28.974609 42.779297L31.013672 32L40.5 32 A 1.50015 1.50015 0 1 0 40.5 29L31.582031 29L33.472656 19L42.5 19 A 1.50015 1.50015 0 1 0 42.5 16L34.041016 16L35.974609 5.7792969 A 1.5008259 1.5008259 0 0 0 33.025391 5.2207031L30.986328 16L20.041016 16L21.974609 5.7792969 A 1.50015 1.50015 0 0 0 20.460938 3.9804688 z M 19.472656 19L30.417969 19L28.527344 29L17.582031 29L19.472656 19 z" />
</svg>