<?xml version="1.0" encoding="utf-8"?>
<svg xmlns="http://www.w3.org/2000/svg" viewBox="0 0 48 48" width="144" height="144">
  <path d="M35.476562 2.9785156 A 1.50015 1.50015 0 0 0 34 4.5L34 6L32.5 6 A 1.50015 1.50015 0 1 0 32.5 9L34 9L34 10.5 A 1.50015 1.50015 0 1 0 37 10.5L37 9L38.5 9 A 1.50015 1.50015 0 1 0 38.5 6L37 6L37 4.5 A 1.50015 1.50015 0 0 0 35.476562 2.9785156 z M 22.5 6C11.748317 6 3 14.748317 3 25.5C3 36.251683 11.748317 45 22.5 45C29.773052 45 36.113937 40.99287 39.458984 35.078125 A 1.50015 1.50015 0 0 0 38.335938 32.851562C29.691387 31.784698 23 24.447284 23 15.5C23 12.879203 23.591547 10.406884 24.626953 8.1679688 A 1.50015 1.50015 0 0 0 23.330078 6.0410156C23.142065 6.0329053 22.866527 6 22.5 6 z M 21.146484 9.1367188C20.47673 11.151905 20 13.256895 20 15.5C20 25.095117 26.648438 33.08569 35.570312 35.304688C32.566088 39.314628 27.905624 42 22.5 42C13.369683 42 6 34.630317 6 25.5C6 16.833595 12.663649 9.83383 21.146484 9.1367188 z M 40.476562 15.978516 A 1.50015 1.50015 0 0 0 39 17.5L39 19L37.5 19 A 1.50015 1.50015 0 1 0 37.5 22L39 22L39 23.5 A 1.50015 1.50015 0 1 0 42 23.5L42 22L43.5 22 A 1.50015 1.50015 0 1 0 43.5 19L42 19L42 17.5 A 1.50015 1.50015 0 0 0 40.476562 15.978516 z" />
</svg>