<?xml version="1.0" encoding="utf-8"?>
<svg xmlns="http://www.w3.org/2000/svg" viewBox="0 0 48 48" width="144" height="144">
  <path d="M7.5 6C5.0324991 6 3 8.0324991 3 10.5L3 35.5C3 39.071938 5.9280619 42 9.5 42L38.5 42C42.071938 42 45 39.071938 45 35.5L45 20.5C45 18.032499 42.967501 16 40.5 16L39 16L39 10.5C39 8.0324991 36.967501 6 34.5 6L7.5 6 z M 7.5 9L34.5 9C35.346499 9 36 9.6535009 36 10.5L36 17.253906 A 1.50015 1.50015 0 0 0 36 17.740234L36 34.5 A 1.50015 1.50015 0 1 0 39 34.5L39 19L40.5 19C41.346499 19 42 19.653501 42 20.5L42 35.5C42 37.450062 40.450062 39 38.5 39L9.5 39C7.5499381 39 6 37.450062 6 35.5L6 10.5C6 9.6535009 6.6535009 9 7.5 9 z M 10.5 15 A 1.50015 1.50015 0 1 0 10.5 18L31.5 18 A 1.50015 1.50015 0 1 0 31.5 15L10.5 15 z M 10.5 23 A 1.50015 1.50015 0 0 0 9 24.5L9 31.5 A 1.50015 1.50015 0 0 0 10.5 33L17.5 33 A 1.50015 1.50015 0 0 0 19 31.5L19 24.5 A 1.50015 1.50015 0 0 0 17.5 23L10.5 23 z M 23.5 23 A 1.50015 1.50015 0 1 0 23.5 26L31.5 26 A 1.50015 1.50015 0 1 0 31.5 23L23.5 23 z M 12 26L16 26L16 30L12 30L12 26 z M 23.5 30 A 1.50015 1.50015 0 1 0 23.5 33L31.5 33 A 1.50015 1.50015 0 1 0 31.5 30L23.5 30 z" />
</svg>